# xmcd
#
# Track frame offsets:
# 150
# 16295
# 32409
# 47752
# 61862
# 75576
# 90780
# 110890
# 128362
# 141974
# 153350
# 168340
# 185211
# 199499
# 211788
# 229385
# 249910
# 263236
#
# Disc length: 3647 seconds
#
#
# Revision: 0
# Processed by: cddbd v1.5.1PL0 Copyright (c) Steve Scherf et al.
# Submitted via: FreeRIP 2.93 
#
DISCID=ec0e3d12
DTITLE=Fargone Beauties - Beauty Contest
DYEAR=1900
DGENRE=Crossover
TTITLE0=Highway To Hell
TTITLE1=Play That Country Music
TTITLE2=Suspicious Minds
TTITLE3=Sex and Drugs&Rock&Roll
TTITLE4=Hey, Good Looking
TTITLE5=Born To Be Wild
TTITLE6=Get It On
TTITLE7=Rock and Roll
TTITLE8=Mama, We're All Crazy Now
TTITLE9=Great Balls Of Fire
TTITLE10=Fat Bottomed Girls
TTITLE11=Ballroom Blitz/Magnificent 7
TTITLE12=That's The Way (I Like It) /The Hustle
TTITLE13=Wild Thing/Bonanza
TTITLE14=Hey Joe
TTITLE15=Riff Fest
TTITLE16=Sad Tales Of The Brothers Oink
TTITLE17=I HEar You Knockin'/Walk Don't Run
EXTD=
EXTT0=
EXTT1=
EXTT2=
EXTT3=
EXTT4=
EXTT5=
EXTT6=
EXTT7=
EXTT8=
EXTT9=
EXTT10=
EXTT11=
EXTT12=
EXTT13=
EXTT14=
EXTT15=
EXTT16=
EXTT17=
PLAYORDER=
